.
..............................Site Info...........................

 -   http://www.scenetime.com  *_*    

Scenetime .Always on time . friendly online private torrent community ..

     We care to share . Join us on  http://www.scenetime.com 

    Be the first to get new release at  http://www.scenetime.com

        Seed back for speed


...................................NFO:.................................................[IMG]http://i.imgur.com/qD9lu.gif[/IMG]

 
TITLE: 

The Dark Knight Rises 2012 TS READNFO XViD v4 - INSPiRAL

IMDB: 

www.imdb.com/title/tt1345836/


SOURCES:

VIDEO -  chinese video  THANKS
AUDIO -  toothfairy  THANKS
SUBS  - None Add

STATS:

Video
ID                               : 0
Format                           : MPEG-4 Visual
Format profile                   : Advanced Simple@L5
Format settings, BVOP            : 2
Format settings, QPel            : No
Format settings, GMC             : No warppoints
Format settings, Matrix          : Default (MPEG)
Muxing mode                      : Packed bitstream
Codec ID                         : XVID
Codec ID/Hint                    : XviD
Duration                         : 2h 37mn
Bit rate                         : 1 723 Kbps
Width                            : 720 pixels
Height                           : 304 pixels
Display aspect ratio             : 2.35:1
Frame rate                       : 24.000 fps
Color space                      : YUV
Chroma subsampling               : 4:2:0
Bit depth                        : 8 bits
Scan type                        : Progressive
Compression mode                 : Lossy
Bits/(Pixel*Frame)               : 0.328
Stream size                      : 1.90 GiB (92%)
Writing library                  : XviD 64

Audio
ID                               : 1
Format                           : MPEG Audio
Format version                   : Version 1
Format profile                   : Layer 3
Mode                             : Joint stereo
Mode extension                   : MS Stereo
Codec ID                         : 55
Codec ID/Hint                    : MP3
Duration                         : 2h 37mn
Bit rate mode                    : Constant
Bit rate                         : 128 Kbps
Channel(s)                       : 2 channels
Sampling rate                    : 44.1 KHz
Compression mode                 : Lossy
Stream size                      : 145 MiB (7%)
Alignment                        : Split accross interleaves
Interleave, duration             : 42 ms (1.00 video frame)
Interleave, preload duration     : 500 ms


NOTES:

V4 ....DAM!!
Oh well the different sources keep coming out lol ....anyways like all the others tagged r6,HDTS etc..this is
the video they all used aswell....pass to what tag it really deserves,but too me...TS is what it is.
CAM video with line audio.

Video was nice,but really dark,colours off,watermarks now and again and also had like a glare in the middle of the 
screen,like expendables 2 did.
Anyway fixed up what we could ..tweaked this,tweaked that ...then we clean the audio and basically hey presto
TS nos 4 of this from us.

Enjoy folks :)

SCREENS:

[img]http://i.imgrz.com/F5p1P.png[/img] 
[img]http://i.imgrz.com/oEaNw.png[/img] 
[img]http://i.imgrz.com/Se7T1.png[/img] 
[img]http://i.imgrz.com/LzuKC.png[/img] 
[img]http://i.imgrz.com/OL2gp.png[/img] 
[img]http://i.imgrz.com/AWTRU.png[/img] 
[img]http://i.imgrz.com/EfGB.png[/img] 

GREETZ: 

Past,Present and Future

[IMG]http://i.imgur.com/qD9lu.gif[/IMG]